<svg id="Layer_1" data-name="Layer 1" xmlns="http://www.w3.org/2000/svg" viewBox="0 0 173.44 195.69"><defs><style>.cls-1{fill:#fff;}</style></defs><title>JHWAK</title><path d="M280.89,43.05,254.31,91.64l1.19,1,21.27-22.33,1.12,1-17.5,21.82.73.94,41.57-28,.72.74c-2.2,2.2-4.19,4.7-6.66,6.55C288,80,283.22,89,280.38,99.29c-1,3.44-3,5.07-6.38,6-8.3,2.28-16.52,4.91-24.76,7.44a7.51,7.51,0,0,0-3.68,2.27c7.41,1.36,14.15-2.32,21.45-2.33-9.28,4.25-18,9.77-28.64,12.54,1.14,4.1,2.56,9.27,4.19,15.17,10-4.92,22-3.83,28.44-15,.41,5.11-1.1,8.69-4.48,10.82-6,3.8-12.31,7.24-18.1,11.38-3.09,2.2-5.59,5.37-7.91,8.45-1.88,2.48-3,5.55-4.61,8.24-8.52,14-15.05,28.76-17.71,45.06A6.61,6.61,0,0,1,216,213.1c-.86-3.21-1.91-6.39-2.53-9.64-2.13-11.2-7.12-21.17-11.82-31.46-7.08-15.48-17-27.37-32.6-34.23-5.19-2.27-6.87-6.6-7.4-12.08,6.7,10.66,18.71,9.9,28.9,14.65l4.42-15.8c-11.21-1.15-19.38-8.31-29.08-11.78,7.33,0,14.14,3.18,21.31,3.28l.39-1.66a24.41,24.41,0,0,0-3.24-1.52c-8.72-2.67-17.51-5.11-26.14-8-2-.68-4.51-2.74-5-4.61C149.91,86.22,141,76.29,130,67.72l1.07-1.21,41.28,27.85.73-.76L153.72,69.51l.51-.49,23,23.26,1.36-1.07-26.3-48.09.93-.6,49.13,73.34,1.36-.63q-12.93-35.88-25.85-71.77l.88-.36c1.61,3.36,3.25,6.71,4.84,10.09C191.44,70,199.29,86.84,207.3,103.6c.76,1.58,2.45,2.71,3.72,4,.59-1.73,1.64-3.45,1.72-5.2q1.6-40.05,3-80.11a9.28,9.28,0,0,1,1-4.92c.19,2.06.47,4.11.55,6.17,1,26.37,2,52.75,3.13,79.11.08,1.68,1.22,3.32,1.87,5,1.14-1.25,2.66-2.32,3.36-3.79,8.2-17.22,16.26-34.51,24.38-51.77a19,19,0,0,1,4.52-6.63l-25.26,70,1.29.66L280,42.43ZM215.8,184.64l1.48-.08,6.81-56.32-2.09-.42c-1.66,4.63-3.33,9.25-5.5,15.29l-5.37-15.29-2.1.48Q212.42,156.47,215.8,184.64Zm-12.48-44-1.53-.64c-1.52,2.52-4.82,5.65-4.21,7.43,1.79,5.14,5.14,9.75,7.89,14.57l1.19-.59Zm23.08,21c1.21-.49,1.63-.53,1.76-.74q2.81-4.67,5.53-9.38c3.11-5.39,2.25-7.9-3.9-11ZM180,107.76l.67-1.07-20.55-13C163.23,105.31,173.38,103.77,180,107.76Zm72.37-1,.68,1c6.45-4.16,16.85-2.3,19.66-14Z" transform="translate(-129.98 -17.41)"/><path class="cls-1" d="M215.8,184.64q-3.39-28.17-6.77-56.34l2.1-.48,5.37,15.29c2.17-6,3.84-10.66,5.5-15.29l2.09.42-6.81,56.32Z" transform="translate(-129.98 -17.41)"/><path class="cls-1" d="M203.32,140.59l3.34,20.77-1.19.59c-2.75-4.82-6.1-9.43-7.89-14.57-.61-1.78,2.69-4.91,4.21-7.43Z" transform="translate(-129.98 -17.41)"/><path class="cls-1" d="M226.4,161.55l3.39-21.07c6.15,3.05,7,5.56,3.9,11q-2.73,4.71-5.53,9.38C228,161,227.61,161.06,226.4,161.55Z" transform="translate(-129.98 -17.41)"/><path class="cls-1" d="M180,107.76c-6.65-4-16.8-2.45-19.88-14.09l20.55,13Z" transform="translate(-129.98 -17.41)"/><path class="cls-1" d="M252.4,106.75l20.34-13c-2.81,11.74-13.21,9.88-19.66,14Z" transform="translate(-129.98 -17.41)"/></svg>